<mxfile host="app.diagrams.net" modified="2024-01-15T20:53:59.210Z" agent="Mozilla/5.0 (Windows NT 10.0; Win64; x64) AppleWebKit/537.36 (KHTML, like Gecko) Chrome/120.0.0.0 Safari/537.36" version="22.1.18" etag="sEyjrGjkU5g1LNg5JiCv" type="github">
  <diagram name="Page-1" id="iBsDPBGNGASx7_R9lyi4">
    <mxGraphModel>
      <root>
        <mxCell id="0" />
        <mxCell id="1" parent="0" />
      </root>
    </mxGraphModel>
  </diagram>
</mxfile>
